<svg width="484" height="119" viewBox="0 0 484 119" fill="none" xmlns="http://www.w3.org/2000/svg">
<rect x="134" y="27" width="3" height="69" fill="#121214"/>
<path d="M108.5 61C108.5 92.2802 84.4732 117.5 55 117.5C25.5268 117.5 1.5 92.2802 1.5 61C1.5 29.7199 25.5268 4.5 55 4.5C84.4732 4.5 108.5 29.7199 108.5 61Z" fill="#363636" stroke="black" stroke-width="3"/>
<path d="M54.368 51.772C55.204 50.716 56.37 49.77 57.866 48.934C59.362 48.054 61.1 47.614 63.08 47.614C65.5 47.614 67.656 48.252 69.548 49.528C71.484 50.804 73.002 52.74 74.102 55.336C75.246 57.888 75.818 61.034 75.818 64.774V65.5C75.818 69.24 75.18 72.408 73.904 75.004C72.672 77.556 70.978 79.47 68.822 80.746C66.666 82.022 64.224 82.66 61.496 82.66C56.744 82.66 53.048 80.79 50.408 77.05L45.92 82H41.3V34.48H54.368V51.772ZM58.46 55.864C57.316 55.864 56.348 56.326 55.556 57.25C54.764 58.13 54.368 59.208 54.368 60.484V70.054C54.368 71.33 54.764 72.43 55.556 73.354C56.348 74.234 57.316 74.674 58.46 74.674C59.604 74.674 60.572 74.234 61.364 73.354C62.156 72.43 62.552 71.33 62.552 70.054V60.484C62.552 59.208 62.156 58.13 61.364 57.25C60.572 56.326 59.604 55.864 58.46 55.864Z" fill="url(#paint0_linear_42_2)"/>
<path d="M54.368 51.772H52.368V57.5205L55.9361 53.0134L54.368 51.772ZM57.866 48.934L58.8416 50.6799L58.861 50.6691L58.88 50.6579L57.866 48.934ZM69.548 49.528L68.4297 51.1861L68.4385 51.1921L68.4474 51.1979L69.548 49.528ZM74.102 55.336L72.2605 56.1163L72.2685 56.1353L72.277 56.1541L74.102 55.336ZM73.904 75.004L72.1091 74.1218L72.106 74.1281L72.1029 74.1345L73.904 75.004ZM68.822 80.746L67.8034 79.0248L67.8034 79.0248L68.822 80.746ZM50.408 77.05L52.0419 75.8966L50.6027 73.8577L48.9263 75.7066L50.408 77.05ZM45.92 82V84H46.8063L47.4017 83.3434L45.92 82ZM41.3 82H39.3V84H41.3V82ZM41.3 34.48V32.48H39.3V34.48H41.3ZM54.368 34.48H56.368V32.48H54.368V34.48ZM55.556 57.25L57.0426 58.5879L57.0588 58.5699L57.0745 58.5516L55.556 57.25ZM55.556 73.354L54.0375 74.6556L54.0532 74.6739L54.0694 74.6919L55.556 73.354ZM61.364 73.354L62.8506 74.6919L62.8668 74.6739L62.8825 74.6556L61.364 73.354ZM61.364 57.25L59.8455 58.5516L59.8612 58.5699L59.8774 58.5879L61.364 57.25ZM55.9361 53.0134C56.5718 52.2104 57.5145 51.4215 58.8416 50.6799L56.8904 47.1881C55.2255 48.1185 53.8362 49.2216 52.7999 50.5306L55.9361 53.0134ZM58.88 50.6579C60.0274 49.9829 61.4055 49.614 63.08 49.614V45.614C60.7945 45.614 58.6966 46.1251 56.852 47.2101L58.88 50.6579ZM63.08 49.614C65.1269 49.614 66.8885 50.1467 68.4297 51.1861L70.6663 47.8699C68.4235 46.3573 65.8731 45.614 63.08 45.614V49.614ZM68.4474 51.1979C69.9889 52.2139 71.2808 53.8042 72.2605 56.1163L75.9435 54.5557C74.7232 51.6758 72.9791 49.3941 70.6486 47.8581L68.4474 51.1979ZM72.277 56.1541C73.2737 58.3776 73.818 61.2258 73.818 64.774H77.818C77.818 60.8422 77.2183 57.3984 75.927 54.5179L72.277 56.1541ZM73.818 64.774V65.5H77.818V64.774H73.818ZM73.818 65.5C73.818 69.0206 73.2166 71.8686 72.1091 74.1218L75.6989 75.8862C77.1434 72.9474 77.818 69.4594 77.818 65.5H73.818ZM72.1029 74.1345C71.019 76.3798 69.5772 77.975 67.8034 79.0248L69.8406 82.4672C72.3788 80.965 74.325 78.7322 75.7051 75.8735L72.1029 74.1345ZM67.8034 79.0248C65.9829 80.1023 63.8985 80.66 61.496 80.66V84.66C64.5495 84.66 67.3491 83.9417 69.8406 82.4672L67.8034 79.0248ZM61.496 80.66C57.3645 80.66 54.2906 79.0822 52.0419 75.8966L48.7741 78.2034C51.8054 82.4978 56.1235 84.66 61.496 84.66V80.66ZM48.9263 75.7066L44.4383 80.6566L47.4017 83.3434L51.8897 78.3934L48.9263 75.7066ZM45.92 80H41.3V84H45.92V80ZM43.3 82V34.48H39.3V82H43.3ZM41.3 36.48H54.368V32.48H41.3V36.48ZM52.368 34.48V51.772H56.368V34.48H52.368ZM58.46 53.864C56.6911 53.864 55.1819 54.6133 54.0375 55.9484L57.0745 58.5516C57.5141 58.0387 57.9409 57.864 58.46 57.864V53.864ZM54.0694 55.9121C52.92 57.1892 52.368 58.7557 52.368 60.484H56.368C56.368 59.6603 56.608 59.0708 57.0426 58.5879L54.0694 55.9121ZM52.368 60.484V70.054H56.368V60.484H52.368ZM52.368 70.054C52.368 71.7822 52.9188 73.3504 54.0375 74.6556L57.0745 72.0524C56.6092 71.5096 56.368 70.8778 56.368 70.054H52.368ZM54.0694 74.6919C55.2257 75.9766 56.7269 76.674 58.46 76.674V72.674C57.9051 72.674 57.4703 72.4914 57.0426 72.0161L54.0694 74.6919ZM58.46 76.674C60.1931 76.674 61.6943 75.9766 62.8506 74.6919L59.8774 72.0161C59.4497 72.4914 59.0149 72.674 58.46 72.674V76.674ZM62.8825 74.6556C64.0012 73.3504 64.552 71.7822 64.552 70.054H60.552C60.552 70.8778 60.3108 71.5096 59.8455 72.0524L62.8825 74.6556ZM64.552 70.054V60.484H60.552V70.054H64.552ZM64.552 60.484C64.552 58.7557 64 57.1892 62.8506 55.9121L59.8774 58.5879C60.312 59.0708 60.552 59.6603 60.552 60.484H64.552ZM62.8825 55.9484C61.7381 54.6133 60.2289 53.864 58.46 53.864V57.864C58.9791 57.864 59.4059 58.0387 59.8455 58.5516L62.8825 55.9484Z" fill="black"/>
<path d="M169.682 52.564C170.694 51.112 172.058 49.924 173.774 49C175.534 48.076 177.426 47.614 179.45 47.614C183.762 47.614 187.106 49.132 189.482 52.168C191.858 55.16 193.046 59.23 193.046 64.378V65.104C193.046 70.56 191.814 74.85 189.35 77.974C186.93 81.098 183.608 82.66 179.384 82.66C174.368 82.66 170.584 80.658 168.032 76.654L165.854 82H163.478V34.48H169.682V52.564ZM178.196 52.564C175.248 52.564 173.07 53.598 171.662 55.666C170.298 57.69 169.616 60.858 169.616 65.17C169.616 69.482 170.32 72.65 171.728 74.674C173.136 76.698 175.292 77.71 178.196 77.71C183.96 77.71 186.842 73.53 186.842 65.17C186.842 60.858 186.116 57.69 184.664 55.666C183.212 53.598 181.056 52.564 178.196 52.564ZM208.293 34.48V40.222H201.825V34.48H208.293ZM208.161 48.274V82H201.957V48.274H208.161ZM249.989 42.202C249.989 44.446 249.395 46.338 248.207 47.878C247.019 49.374 245.369 50.342 243.257 50.782L243.125 50.98C245.325 52.916 246.425 55.336 246.425 58.24C246.425 61.408 245.237 63.96 242.861 65.896C240.485 67.832 237.251 68.8 233.159 68.8H228.671C227.351 68.8 226.251 69.152 225.371 69.856C224.491 70.516 224.051 71.374 224.051 72.43C224.051 73.486 224.469 74.322 225.305 74.938C226.141 75.554 227.263 75.862 228.671 75.862H241.409C244.005 75.862 246.073 76.676 247.613 78.304C249.197 79.932 249.989 82 249.989 84.508C249.989 87.5 248.845 89.898 246.557 91.702C244.313 93.506 241.277 94.408 237.449 94.408H224.183C222.687 94.408 221.301 94.012 220.025 93.22C218.793 92.428 217.803 91.416 217.055 90.184C216.351 88.996 215.999 87.764 215.999 86.488C215.999 84.64 216.439 83.034 217.319 81.67C218.243 80.306 219.453 79.294 220.949 78.634C218.925 77.402 217.913 75.576 217.913 73.156C217.913 71.572 218.375 70.208 219.299 69.064C220.223 67.92 221.521 67.062 223.193 66.49C220.245 64.862 218.771 62.112 218.771 58.24C218.771 54.984 219.959 52.41 222.335 50.518C224.755 48.582 228.099 47.614 232.367 47.614H232.631C235.095 47.614 237.339 47.988 239.363 48.736C242.487 47.196 244.269 45.018 244.709 42.202H249.989ZM232.565 52.564C230.233 52.564 228.363 53.026 226.955 53.95C225.591 54.83 224.909 56.26 224.909 58.24C224.909 60.22 225.591 61.65 226.955 62.53C228.363 63.41 230.233 63.85 232.565 63.85C234.897 63.85 236.767 63.41 238.175 62.53C239.583 61.65 240.287 60.22 240.287 58.24C240.287 56.26 239.583 54.83 238.175 53.95C236.767 53.026 234.897 52.564 232.565 52.564ZM225.965 81.802C224.909 81.802 224.007 82.176 223.259 82.924C222.511 83.672 222.137 84.574 222.137 85.63C222.137 86.686 222.511 87.588 223.259 88.336C224.007 89.084 224.909 89.458 225.965 89.458H238.703C240.111 89.458 241.321 89.04 242.333 88.204C243.345 87.412 243.851 86.488 243.851 85.432C243.851 84.332 243.477 83.452 242.729 82.792C241.981 82.132 240.925 81.802 239.561 81.802H225.965ZM280.109 69.658C280.109 73.662 278.877 76.83 276.413 79.162C273.949 81.494 270.715 82.66 266.711 82.66H266.117C262.113 82.66 258.923 81.538 256.547 79.294C254.215 77.05 253.049 73.838 253.049 69.658V68.272H259.517V70.054C259.517 72.034 260.177 73.662 261.497 74.938C262.861 76.17 264.577 76.786 266.645 76.786C268.713 76.786 270.385 76.17 271.661 74.938C272.981 73.706 273.641 72.078 273.641 70.054V36.724H280.109V69.658ZM304.561 47.614C307.333 47.614 309.775 48.208 311.887 49.396C314.043 50.54 315.715 52.19 316.903 54.346C318.091 56.502 318.685 59.01 318.685 61.87V66.556H295.123C295.211 70.12 296.047 72.87 297.631 74.806C299.215 76.742 301.569 77.71 304.693 77.71C307.465 77.71 309.511 76.896 310.831 75.268C312.151 73.64 312.811 71.704 312.811 69.46H318.685C318.685 72.1 318.069 74.41 316.837 76.39C315.649 78.37 313.977 79.91 311.821 81.01C309.709 82.11 307.289 82.66 304.561 82.66H304.297C299.545 82.66 295.783 81.142 293.011 78.106C290.283 75.026 288.919 70.934 288.919 65.83V64.51C288.919 61.166 289.535 58.218 290.767 55.666C291.999 53.114 293.759 51.134 296.047 49.726C298.335 48.318 301.019 47.614 304.099 47.614H304.561ZM304.231 52.564C301.723 52.564 299.677 53.334 298.093 54.874C296.553 56.414 295.607 58.702 295.255 61.738H312.547V60.946C312.547 58.438 311.777 56.414 310.237 54.874C308.741 53.334 306.739 52.564 304.231 52.564ZM340.971 47.614C345.415 47.614 348.715 48.494 350.871 50.254C353.071 52.014 354.171 54.566 354.171 57.91V75.4C354.171 76.192 354.347 76.786 354.699 77.182C355.051 77.534 355.491 77.71 356.019 77.71C357.031 77.71 358.043 77.402 359.055 76.786V81.34C357.559 82.22 355.865 82.66 353.973 82.66C352.081 82.66 350.673 82.132 349.749 81.076C348.825 79.976 348.319 78.48 348.231 76.588C345.503 80.636 341.565 82.66 336.417 82.66C332.721 82.66 329.949 81.868 328.101 80.284C326.297 78.656 325.395 76.104 325.395 72.628C325.395 69.9 326.099 67.766 327.507 66.226C328.915 64.642 331.247 63.498 334.503 62.794C337.759 62.09 342.247 61.738 347.967 61.738V58.636C347.967 56.392 347.307 54.83 345.987 53.95C344.667 53.026 342.753 52.564 340.245 52.564C337.869 52.564 336.021 53.026 334.701 53.95C333.381 54.874 332.721 56.172 332.721 57.844V58.636H326.649C326.561 58.02 326.517 57.294 326.517 56.458C326.517 54.918 327.133 53.466 328.365 52.102C329.597 50.738 331.269 49.66 333.381 48.868C335.493 48.032 337.825 47.614 340.377 47.614H340.971ZM347.967 66.556C343.347 66.556 339.849 66.798 337.473 67.282C335.141 67.722 333.579 68.404 332.787 69.328C331.995 70.252 331.599 71.528 331.599 73.156C331.599 76.192 333.909 77.71 338.529 77.71C340.157 77.71 341.697 77.314 343.149 76.522C344.601 75.686 345.767 74.52 346.647 73.024C347.527 71.528 347.967 69.812 347.967 67.876V66.556ZM397.2 42.202C397.2 44.446 396.606 46.338 395.418 47.878C394.23 49.374 392.58 50.342 390.468 50.782L390.336 50.98C392.536 52.916 393.636 55.336 393.636 58.24C393.636 61.408 392.448 63.96 390.072 65.896C387.696 67.832 384.462 68.8 380.37 68.8H375.882C374.562 68.8 373.462 69.152 372.582 69.856C371.702 70.516 371.262 71.374 371.262 72.43C371.262 73.486 371.68 74.322 372.516 74.938C373.352 75.554 374.474 75.862 375.882 75.862H388.62C391.216 75.862 393.284 76.676 394.824 78.304C396.408 79.932 397.2 82 397.2 84.508C397.2 87.5 396.056 89.898 393.768 91.702C391.524 93.506 388.488 94.408 384.66 94.408H371.394C369.898 94.408 368.512 94.012 367.236 93.22C366.004 92.428 365.014 91.416 364.266 90.184C363.562 88.996 363.21 87.764 363.21 86.488C363.21 84.64 363.65 83.034 364.53 81.67C365.454 80.306 366.664 79.294 368.16 78.634C366.136 77.402 365.124 75.576 365.124 73.156C365.124 71.572 365.586 70.208 366.51 69.064C367.434 67.92 368.732 67.062 370.404 66.49C367.456 64.862 365.982 62.112 365.982 58.24C365.982 54.984 367.17 52.41 369.546 50.518C371.966 48.582 375.31 47.614 379.578 47.614H379.842C382.306 47.614 384.55 47.988 386.574 48.736C389.698 47.196 391.48 45.018 391.92 42.202H397.2ZM379.776 52.564C377.444 52.564 375.574 53.026 374.166 53.95C372.802 54.83 372.12 56.26 372.12 58.24C372.12 60.22 372.802 61.65 374.166 62.53C375.574 63.41 377.444 63.85 379.776 63.85C382.108 63.85 383.978 63.41 385.386 62.53C386.794 61.65 387.498 60.22 387.498 58.24C387.498 56.26 386.794 54.83 385.386 53.95C383.978 53.026 382.108 52.564 379.776 52.564ZM373.176 81.802C372.12 81.802 371.218 82.176 370.47 82.924C369.722 83.672 369.348 84.574 369.348 85.63C369.348 86.686 369.722 87.588 370.47 88.336C371.218 89.084 372.12 89.458 373.176 89.458H385.914C387.322 89.458 388.532 89.04 389.544 88.204C390.556 87.412 391.062 86.488 391.062 85.432C391.062 84.332 390.688 83.452 389.94 82.792C389.192 82.132 388.136 81.802 386.772 81.802H373.176ZM410.292 34.48V82H404.088V34.48H410.292ZM435.014 47.614C437.786 47.614 440.228 48.208 442.34 49.396C444.496 50.54 446.168 52.19 447.356 54.346C448.544 56.502 449.138 59.01 449.138 61.87V66.556H425.576C425.664 70.12 426.5 72.87 428.084 74.806C429.668 76.742 432.022 77.71 435.146 77.71C437.918 77.71 439.964 76.896 441.284 75.268C442.604 73.64 443.264 71.704 443.264 69.46H449.138C449.138 72.1 448.522 74.41 447.29 76.39C446.102 78.37 444.43 79.91 442.274 81.01C440.162 82.11 437.742 82.66 435.014 82.66H434.75C429.998 82.66 426.236 81.142 423.464 78.106C420.736 75.026 419.372 70.934 419.372 65.83V64.51C419.372 61.166 419.988 58.218 421.22 55.666C422.452 53.114 424.212 51.134 426.5 49.726C428.788 48.318 431.472 47.614 434.552 47.614H435.014ZM434.684 52.564C432.176 52.564 430.13 53.334 428.546 54.874C427.006 56.414 426.06 58.702 425.708 61.738H443V60.946C443 58.438 442.23 56.414 440.69 54.874C439.194 53.334 437.192 52.564 434.684 52.564Z" fill="black"/>
<defs>
<linearGradient id="paint0_linear_42_2" x1="58" y1="20" x2="58" y2="99" gradientUnits="userSpaceOnUse">
<stop offset="0.369587" stop-color="#EBA417"/>
<stop offset="1" stop-color="#272727" stop-opacity="0"/>
</linearGradient>
</defs>
</svg>
